# xmcd
#
# Track frame offsets:
#	150
#	9964
#	24122
#	41349
#	56823
#	70163
#	84640
#	95673
#	111893
#	124174
#	138471
#	153076
#	170429
#	180415
#	196663
#	212222
#	223037
#	234314
#	248571
#	256960
#	267635
#	276410
#	286429
#	296968
#	302476
#	312875
#	332454
#	347937
#
# Disc length: 4783 seconds
#
# Revision: 0
# Processed by: cddbd v1.5.2PL0 Copyright (c) Steve Scherf et al.
# Submitted via: EZCDAudioConverter 2.1.7.1
#
DISCID=9a12ad1c
DTITLE=Henry Mancini - Classic Soundtrack Collection
DYEAR=1900
DGENRE=
TTITLE0=Peter Gunn
TTITLE1=A Quiet Happening
TTITLE2=Dreamsville
TTITLE3=Sky Watch
TTITLE4=A Bluish Bag
TTITLE5=Theme For Sam
TTITLE6=The Monkey Farm
TTITLE7=A Lovely Sound
TTITLE8=I Like The Look
TTITLE9=Silver Tears
TTITLE10=Sweet!
TTITLE11=Night Owl
TTITLE12=Bye Bye
TTITLE13=A Bluish Bag
TTITLE14=Dreamsville
TTITLE15=Theme From Who Is Killing The Great Chefs Of Europe? (Main Title)
TTITLE16=Well Done Louis
TTITLE17=Pesce!
TTITLE18=Bombe Richelieu
TTITLE19=Italian Soup
TTITLE20=They Hang Chefs, Don't They?
TTITLE21=Bombes Away/Natasha In Venice
TTITLE22=Natasha's Theme
TTITLE23=The Movable Feast
TTITLE24=Late Night Call/The Gathering
TTITLE25=Fiery Finale
TTITLE26=The Final Feast/The Confession
TTITLE27=Natasha's Theme (End Title)
EXTD=
EXTT0=
EXTT1=
EXTT2=
EXTT3=
EXTT4=
EXTT5=
EXTT6=
EXTT7=
EXTT8=
EXTT9=
EXTT10=
EXTT11=
EXTT12=
EXTT13=
EXTT14=
EXTT15=
EXTT16=
EXTT17=
EXTT18=
EXTT19=
EXTT20=
EXTT21=
EXTT22=
EXTT23=
EXTT24=
EXTT25=
EXTT26=
EXTT27=
PLAYORDER=
